<svg width="12" height="12" viewBox="0 0 12 12" fill="none" xmlns="http://www.w3.org/2000/svg">
<path d="M10.567 0.245621C10.8947 -0.0820882 11.4268 -0.0819717 11.7545 0.245621C12.0823 0.573388 12.0823 1.10535 11.7545 1.43312L7.18715 5.99953L11.7545 10.5669C12.0823 10.8947 12.0823 11.4266 11.7545 11.7544C11.4268 12.0822 10.8948 12.0822 10.567 11.7544L5.99965 7.18703L1.43324 11.7544C1.10548 12.0822 0.57351 12.0822 0.245743 11.7544C-0.0818499 11.4266 -0.0819665 10.8946 0.245743 10.5669L4.81215 5.99953L0.245743 1.43312C-0.0818592 1.10534 -0.0819694 0.573333 0.245743 0.245621C0.573455 -0.0820915 1.10546 -0.0819812 1.43324 0.245621L5.99965 4.81203L10.567 0.245621Z" fill="#E40E20"/>
</svg>
