<svg width="18" height="20" viewBox="0 0 18 20" fill="none" xmlns="http://www.w3.org/2000/svg">
<path d="M17.7461 3.21823L15.6836 1.15198L13.6211 3.21823L14.4161 4.01323L15.1248 3.30448V6.11323H16.2498V3.31198L16.9511 4.01323L17.7461 3.21823Z" fill="#0054C5"/>
<path d="M13.1764 7.5232V3.37195C13.1764 2.1157 12.1564 1.0957 10.9002 1.0957C9.64391 1.0957 8.62391 2.1157 8.62391 3.37195V7.5232C7.55891 8.2657 6.91016 9.49195 6.91016 10.8007C6.91016 13.002 8.69891 14.7907 10.9002 14.7907C13.1014 14.7907 14.8902 13.002 14.8902 10.8007C14.8902 9.49195 14.2414 8.2657 13.1764 7.5232ZM10.9002 13.6695C9.32141 13.6695 8.03516 12.3832 8.03516 10.8045C8.03516 9.78445 8.58266 8.83195 9.46766 8.32195L9.74891 8.1607V3.3757C9.74891 2.74195 10.2664 2.22445 10.9002 2.22445C11.5339 2.22445 12.0514 2.74195 12.0514 3.3757V8.1607L12.3327 8.32195C13.2177 8.83195 13.7652 9.78445 13.7652 10.8045C13.7652 12.3832 12.4789 13.6695 10.9002 13.6695Z" fill="#0054C5"/>
<path d="M11.6053 10.0957H10.1953V11.5057H11.6053V10.0957Z" fill="#0054C5"/>
<path d="M5.96141 17.7794C3.43766 17.7794 1.38266 15.7244 1.38266 13.2006C1.38266 10.6769 4.85141 7.54189 5.96141 6.63439C6.17891 6.81064 6.48266 7.06564 6.83141 7.38439L7.58516 6.55189C6.85391 5.88814 6.31766 5.48689 6.29516 5.46814L5.95766 5.21313L5.62016 5.46814C5.40266 5.63314 0.253906 9.53314 0.253906 13.2006C0.253906 16.3469 2.81141 18.9044 5.95766 18.9044C7.86266 18.9044 9.63641 17.9556 10.7014 16.3694L9.76766 15.7431C8.91266 17.0181 7.49141 17.7794 5.96141 17.7794Z" fill="#0054C5"/>
<path d="M3.66602 13.2007H2.54102C2.54102 15.0869 4.07477 16.6207 5.96102 16.6207V15.4957C4.69727 15.4957 3.66602 14.4644 3.66602 13.2007Z" fill="#0054C5"/>
</svg>
