<svg width="18" height="20" viewBox="0 0 18 20" fill="none" xmlns="http://www.w3.org/2000/svg">
<path d="M16.1551 8.87402L14.9551 9.10259L15.0735 9.72301H13.9592V10.9475H15.302L16.5224 17.3761H9.61224V15.2944H8.38776V17.3761H1.47755L2.69796 10.9475H4.04082V9.72301H2.93061L4.14694 3.29444H8.38776V5.11077H9.61224V3.29444H10.702V2.06995H3.13469L0 18.6006H18L16.1551 8.87402Z" fill="#0054C5"/>
<path d="M17.0826 1.39921L12.4834 5.99524L13.3489 6.86139L17.9482 2.26536L17.0826 1.39921Z" fill="#0054C5"/>
<path d="M13.8074 1.98352L10.4248 5.36609L11.2906 6.23193L14.6732 2.84937L13.8074 1.98352Z" fill="#0054C5"/>
<path d="M16.5117 4.66706L13.2705 7.9082L14.1364 8.77405L17.3775 5.5329L16.5117 4.66706Z" fill="#0054C5"/>
<path d="M12.3792 9.55157L11.1343 10.2699L10.1833 10.0169L10.8772 9.323H12.318V8.09851H11.2364V7.01686H10.0119V8.45361L9.31393 9.15155L9.06495 8.20869L9.7874 6.95563L8.72618 6.34338L8.18332 7.28218L7.24455 6.73932L6.6323 7.79647L7.8772 8.5189L8.13434 9.46584L7.1874 9.21278L6.46496 7.9638L5.40373 8.57605L5.94659 9.51482L5.00781 10.0577L5.62006 11.1189L6.86904 10.3965L7.82006 10.6495L7.1221 11.3475H5.68128V12.572H6.76291V13.6536H7.9874V12.2128L8.68128 11.5189L8.93434 12.4618L8.21189 13.7108L9.27312 14.323L9.81598 13.3883L10.7548 13.9271L11.367 12.8699L10.118 12.1475L9.86496 11.1965L10.8119 11.4495L11.5343 12.7026L12.5956 12.0903L12.0527 11.1516L12.9915 10.6087L12.3792 9.55157Z" fill="#0054C5"/>
</svg>
