<svg width="66" height="11" viewBox="0 0 66 11" fill="none" xmlns="http://www.w3.org/2000/svg">
<path d="M65.4619 5.36941C65.4619 5.46053 65.4293 5.53863 65.3642 5.60372L60.3658 10.6022C60.2877 10.6803 60.2096 10.7193 60.1315 10.7193C60.0274 10.7193 59.9428 10.6803 59.8777 10.6022L59.331 10.0554C59.2659 9.99036 59.2333 9.90575 59.2333 9.80162C59.2333 9.72352 59.2659 9.64542 59.331 9.56732L63.5484 5.36941L59.331 1.15198C59.2659 1.07388 59.2333 0.989274 59.2333 0.898156C59.2333 0.807039 59.2659 0.728939 59.331 0.663855L59.8777 0.117151C59.9428 0.0390503 60.0274 0 60.1315 0C60.2096 0 60.2877 0.0390503 60.3658 0.117151L65.3642 5.11559C65.4293 5.18067 65.4619 5.26528 65.4619 5.36941Z" fill="white" style="fill:white;fill-opacity:1;"/>
<path d="M64 4.85196V6.35196H0V4.85196H64Z" fill="white" style="fill:white;fill-opacity:1;"/>
</svg>
