<svg width="15" height="17" viewBox="0 0 15 17" fill="none" xmlns="http://www.w3.org/2000/svg">
<path d="M12.3714 8.27345V10.9979C12.3714 11.6827 12.1303 12.2663 11.6479 12.7486C11.1655 13.231 10.582 13.4722 9.89713 13.4722H2.76898C2.09011 13.4722 1.50801 13.231 1.02268 12.7486C0.537344 12.2663 0.294678 11.6827 0.294678 10.9979V3.86972C0.294678 3.1849 0.537344 2.60131 1.02268 2.11895C1.50801 1.6366 2.09011 1.39542 2.76898 1.39542H9.89713C10.2604 1.39542 10.5968 1.46688 10.9065 1.6098C10.9899 1.65148 11.0405 1.71699 11.0584 1.80631C11.0762 1.90755 11.0494 1.99092 10.978 2.05642L10.5581 2.47625C10.5045 2.5358 10.439 2.56558 10.3616 2.56558C10.3438 2.56558 10.3199 2.55962 10.2902 2.54771C10.1592 2.51198 10.0281 2.49412 9.89713 2.49412H2.76898C2.38786 2.49412 2.06332 2.6281 1.79534 2.89608C1.52736 3.16406 1.39338 3.4886 1.39338 3.86972V10.9979C1.39338 11.379 1.52736 11.7035 1.79534 11.9715C2.06332 12.2395 2.38786 12.3735 2.76898 12.3735H9.89713C10.2783 12.3735 10.6028 12.2395 10.8708 11.9715C11.1388 11.7035 11.2727 11.379 11.2727 10.9979V8.82727C11.2727 8.74985 11.2995 8.68435 11.3531 8.63075L11.898 8.08587C11.9576 8.02632 12.0231 7.99655 12.0945 7.99655C12.1303 7.99655 12.166 8.00548 12.2017 8.02334C12.3149 8.07098 12.3714 8.15435 12.3714 8.27345ZM14.3545 4.0841L7.36923 11.0604C7.23226 11.1974 7.06999 11.2658 6.88241 11.2658C6.69482 11.2658 6.53255 11.1974 6.39559 11.0604L2.70646 7.37127C2.56949 7.2343 2.50101 7.07203 2.50101 6.88445C2.50101 6.69686 2.56949 6.53459 2.70646 6.39763L3.6533 5.45078C3.79027 5.31381 3.95254 5.24533 4.14013 5.24533C4.32771 5.24533 4.48998 5.31381 4.62695 5.45078L6.88687 7.71071L12.434 2.16361C12.5709 2.02665 12.7332 1.95817 12.9208 1.95817C13.1084 1.95817 13.2706 2.02665 13.4076 2.16361L14.3545 3.10153C14.4914 3.23849 14.5599 3.40226 14.5599 3.59282C14.5599 3.78338 14.4914 3.94714 14.3545 4.0841Z" fill="#072643" style="fill:#072643;fill:color(display-p3 0.0275 0.1490 0.2627);fill-opacity:1;"/>
</svg>
