<svg width="66" height="11" viewBox="0 0 66 11" fill="none" xmlns="http://www.w3.org/2000/svg">
<path d="M65.532 5.36941C65.532 5.46053 65.4994 5.53863 65.4344 5.60372L60.4359 10.6022C60.3578 10.6803 60.2797 10.7193 60.2016 10.7193C60.0975 10.7193 60.0129 10.6803 59.9478 10.6022L59.4011 10.0554C59.336 9.99036 59.3035 9.90575 59.3035 9.80162C59.3035 9.72352 59.336 9.64542 59.4011 9.56732L63.6185 5.36941L59.4011 1.15198C59.336 1.07388 59.3035 0.989274 59.3035 0.898156C59.3035 0.807039 59.336 0.728939 59.4011 0.663855L59.9478 0.117151C60.0129 0.0390503 60.0975 0 60.2016 0C60.2797 0 60.3578 0.0390503 60.4359 0.117151L65.4344 5.11559C65.4994 5.18067 65.532 5.26528 65.532 5.36941Z" fill="#282828" style="fill:#282828;fill:color(display-p3 0.1569 0.1569 0.1569);fill-opacity:1;"/>
<path d="M64 4.85199V6.35199H0V4.85199H64Z" fill="#282828" style="fill:#282828;fill:color(display-p3 0.1569 0.1569 0.1569);fill-opacity:1;"/>
</svg>
