<svg width="396" height="384" viewBox="0 0 396 384" fill="none" xmlns="http://www.w3.org/2000/svg">
<g clip-path="url(#clip0_20_38)">
<path d="M123.023 330.859C122.409 330.859 121.953 330.78 121.656 330.622C121.379 330.443 121.241 330.196 121.241 329.879V311.198C121.241 310.406 121.607 310.01 122.339 310.01H128.458C130.873 310.01 132.685 310.554 133.893 311.643C135.12 312.732 135.734 314.366 135.734 316.544C135.734 318.702 135.12 320.336 133.893 321.444C132.685 322.533 130.873 323.078 128.458 323.078H125.844V329.879C125.844 330.196 125.705 330.443 125.428 330.622C125.151 330.78 124.696 330.859 124.062 330.859H123.023ZM125.844 319.187H128.458C129.368 319.187 130.022 318.979 130.418 318.563C130.834 318.148 131.042 317.474 131.042 316.544C131.042 315.613 130.834 314.94 130.418 314.524C130.022 314.108 129.368 313.901 128.458 313.901H125.844V319.187ZM144.624 330.859C144.129 330.859 143.743 330.81 143.465 330.711C143.188 330.592 143.01 330.414 142.931 330.176L136.397 311.138C136.377 311.039 136.357 310.95 136.337 310.871C136.318 310.772 136.308 310.683 136.308 310.604C136.308 310.386 136.427 310.228 136.664 310.129C136.902 310.01 137.278 309.95 137.793 309.95H139.189C139.624 309.95 139.991 310 140.288 310.099C140.585 310.178 140.773 310.337 140.852 310.574L145.396 326.226H145.515L150.059 310.574C150.138 310.356 150.296 310.198 150.534 310.099C150.772 310 151.069 309.95 151.425 309.95H152.702C153.336 309.95 153.791 310.01 154.068 310.129C154.365 310.228 154.514 310.386 154.514 310.604C154.514 310.683 154.504 310.772 154.484 310.871C154.464 310.95 154.435 311.039 154.395 311.138L147.861 330.176C147.782 330.414 147.604 330.592 147.326 330.711C147.049 330.81 146.663 330.859 146.168 330.859H144.624ZM165.426 330.859C164.812 330.859 164.357 330.78 164.06 330.622C163.783 330.443 163.644 330.196 163.644 329.879V310.931C163.644 310.614 163.783 310.376 164.06 310.218C164.357 310.04 164.812 309.95 165.426 309.95H167C167.436 309.95 167.822 310.02 168.159 310.158C168.515 310.277 168.792 310.515 168.99 310.871L173.475 318.92C173.633 319.177 173.782 319.454 173.92 319.751C174.079 320.029 174.198 320.276 174.277 320.494C174.376 320.296 174.495 320.039 174.633 319.722C174.792 319.405 174.92 319.148 175.019 318.95L179.593 310.901C179.811 310.525 180.068 310.277 180.365 310.158C180.682 310.02 181.058 309.95 181.494 309.95H183.038C183.672 309.95 184.127 310.04 184.405 310.218C184.682 310.376 184.82 310.614 184.82 310.931V329.909C184.82 330.226 184.682 330.463 184.405 330.622C184.127 330.78 183.672 330.859 183.038 330.859H182.326C181.712 330.859 181.256 330.78 180.959 330.622C180.682 330.443 180.544 330.196 180.544 329.879V319.068C180.544 318.811 180.544 318.563 180.544 318.326C180.544 318.088 180.544 317.851 180.544 317.613L180.425 317.583C180.326 317.781 180.217 317.979 180.098 318.177C179.979 318.356 179.87 318.544 179.771 318.742L176.267 325.068C176.108 325.365 175.881 325.573 175.584 325.691C175.306 325.79 174.92 325.84 174.425 325.84H174.039C173.544 325.84 173.148 325.79 172.851 325.691C172.574 325.573 172.356 325.365 172.198 325.068L168.693 318.742C168.594 318.544 168.485 318.356 168.367 318.177C168.248 317.979 168.139 317.781 168.04 317.583L167.921 317.613C167.921 317.851 167.921 318.088 167.921 318.326C167.921 318.563 167.921 318.811 167.921 319.068V329.879C167.921 330.196 167.782 330.443 167.505 330.622C167.228 330.78 166.773 330.859 166.139 330.859H165.426ZM197.614 331.037C194.565 331.037 192.209 330.127 190.546 328.305C188.902 326.464 188.081 323.83 188.081 320.405C188.081 316.979 188.902 314.356 190.546 312.534C192.209 310.693 194.565 309.772 197.614 309.772C200.683 309.772 203.03 310.693 204.653 312.534C206.297 314.356 207.118 316.979 207.118 320.405C207.118 323.83 206.297 326.464 204.653 328.305C203.03 330.127 200.683 331.037 197.614 331.037ZM197.614 327.147C199.198 327.147 200.396 326.582 201.208 325.454C202.02 324.305 202.426 322.622 202.426 320.405C202.426 318.167 202.02 316.484 201.208 315.356C200.396 314.227 199.198 313.663 197.614 313.663C196.03 313.663 194.823 314.227 193.991 315.356C193.179 316.484 192.773 318.167 192.773 320.405C192.773 322.622 193.179 324.305 193.991 325.454C194.823 326.582 196.03 327.147 197.614 327.147ZM211.497 330.8C210.765 330.8 210.399 330.404 210.399 329.612V311.198C210.399 310.406 210.765 310.01 211.497 310.01H218.269C221.338 310.01 223.684 310.901 225.308 312.683C226.951 314.465 227.773 317.039 227.773 320.405C227.773 323.751 226.951 326.325 225.308 328.127C223.684 329.909 221.338 330.8 218.269 330.8H211.497ZM215.002 326.909H218.269C219.853 326.909 221.051 326.365 221.863 325.276C222.675 324.167 223.08 322.543 223.08 320.405C223.08 318.266 222.675 316.653 221.863 315.564C221.051 314.455 219.853 313.901 218.269 313.901H215.002V326.909ZM239.662 331.037C236.91 331.037 234.762 330.404 233.217 329.137C231.673 327.869 230.901 326.107 230.901 323.85V310.931C230.901 310.614 231.039 310.376 231.317 310.218C231.614 310.04 232.069 309.95 232.683 309.95H233.722C234.356 309.95 234.811 310.04 235.089 310.218C235.366 310.376 235.504 310.614 235.504 310.931V323.553C235.504 324.682 235.871 325.563 236.603 326.196C237.336 326.83 238.356 327.147 239.662 327.147C241.009 327.147 242.048 326.83 242.781 326.196C243.533 325.563 243.909 324.682 243.909 323.553V310.931C243.909 310.614 244.048 310.376 244.325 310.218C244.622 310.04 245.078 309.95 245.691 309.95H246.731C247.365 309.95 247.82 310.04 248.097 310.218C248.374 310.376 248.513 310.614 248.513 310.931V323.85C248.513 326.107 247.731 327.869 246.167 329.137C244.602 330.404 242.434 331.037 239.662 331.037ZM253.381 330.8C252.589 330.8 252.193 330.404 252.193 329.612V310.931C252.193 310.614 252.332 310.376 252.609 310.218C252.906 310.04 253.361 309.95 253.975 309.95H255.015C255.648 309.95 256.104 310.04 256.381 310.218C256.658 310.376 256.797 310.614 256.797 310.931V326.909H263.182C263.776 326.909 264.073 327.404 264.073 328.394V329.315C264.073 330.305 263.776 330.8 263.182 330.8H253.381ZM267.678 330.8C266.945 330.8 266.579 330.404 266.579 329.612V311.198C266.579 310.406 266.945 310.01 267.678 310.01H278.281C278.875 310.01 279.172 310.505 279.172 311.495V312.416C279.172 313.406 278.875 313.901 278.281 313.901H271.183V318.207H277.509C278.083 318.207 278.37 318.702 278.37 319.692V320.613C278.37 321.603 278.083 322.098 277.509 322.098H271.183V326.909H278.311C278.905 326.909 279.202 327.404 279.202 328.394V329.315C279.202 330.305 278.905 330.8 278.311 330.8H267.678Z" fill="#2D5AA9"/>
<path d="M20.2078 358.64V337.553H29.5336C30.5038 337.553 31.3948 337.751 32.2066 338.147C33.0382 338.543 33.751 339.077 34.345 339.75C34.9588 340.424 35.4241 341.176 35.7409 342.008C36.0775 342.839 36.2458 343.691 36.2458 344.562C36.2458 345.453 36.0874 346.314 35.7706 347.146C35.4736 347.958 35.038 348.67 34.4638 349.284C33.8896 349.898 33.2164 350.373 32.4442 350.71L37.2556 358.64H32.7412L28.405 351.571H24.3064V358.64H20.2078ZM24.3064 347.977H29.4445C29.9593 347.977 30.4147 347.829 30.8107 347.532C31.2067 347.215 31.5235 346.799 31.7611 346.284C31.9987 345.77 32.1175 345.195 32.1175 344.562C32.1175 343.889 31.9789 343.305 31.7017 342.81C31.4245 342.295 31.0681 341.889 30.6325 341.592C30.2167 341.295 29.7613 341.146 29.2663 341.146H24.3064V347.977ZM54.6016 355.046V358.64H39.9595V337.553H54.3343V341.146H44.0581V346.225H52.9384V349.551H44.0581V355.046H54.6016ZM57.7969 358.64V337.553H61.8955V355.046H72.6469V358.64H57.7969ZM75.1412 358.64V337.553H79.2398V358.64H75.1412ZM89.3715 337.553H93.5295L101.281 358.64H97.0638L95.1036 353.383H87.738L85.8075 358.64H81.5901L89.3715 337.553ZM94.3611 350.502L91.4505 341.8L88.4211 350.502H94.3611ZM120.582 353.205C120.582 354.393 120.276 355.392 119.662 356.204C119.048 356.996 118.216 357.6 117.167 358.016C116.137 358.432 115.009 358.64 113.781 358.64H103.594V337.553H114.88C115.87 337.553 116.721 337.82 117.434 338.355C118.167 338.869 118.721 339.543 119.097 340.374C119.493 341.186 119.691 342.037 119.691 342.928C119.691 343.938 119.434 344.898 118.919 345.809C118.404 346.72 117.652 347.393 116.662 347.829C117.87 348.185 118.82 348.829 119.513 349.759C120.226 350.69 120.582 351.838 120.582 353.205ZM116.454 352.432C116.454 351.898 116.345 351.423 116.127 351.007C115.91 350.571 115.613 350.235 115.236 349.997C114.88 349.74 114.464 349.611 113.989 349.611H107.693V355.165H113.781C114.276 355.165 114.722 355.046 115.118 354.808C115.533 354.551 115.86 354.214 116.098 353.799C116.335 353.383 116.454 352.927 116.454 352.432ZM107.693 341.057V346.374H113.157C113.613 346.374 114.029 346.265 114.405 346.047C114.781 345.829 115.078 345.522 115.296 345.126C115.533 344.73 115.652 344.255 115.652 343.701C115.652 343.166 115.543 342.701 115.326 342.305C115.128 341.909 114.85 341.602 114.494 341.384C114.157 341.166 113.771 341.057 113.336 341.057H107.693ZM123.781 358.64V337.553H127.879V358.64H123.781ZM132.279 358.64V337.553H136.378V355.046H147.129V358.64H132.279ZM149.623 358.64V337.553H153.722V358.64H149.623ZM173.892 341.146H167.15V358.64H163.081V341.146H156.339V337.553H173.892V341.146ZM178.886 337.553L184.083 347.472L189.37 337.553H193.795L186.133 351.274V358.64H182.064V351.215L174.431 337.553H178.886ZM214.712 343.077C214.574 342.938 214.316 342.75 213.94 342.513C213.584 342.275 213.138 342.047 212.604 341.829C212.089 341.612 211.525 341.424 210.911 341.265C210.297 341.087 209.673 340.998 209.04 340.998C207.931 340.998 207.089 341.206 206.515 341.622C205.961 342.037 205.684 342.621 205.684 343.374C205.684 343.948 205.862 344.403 206.218 344.74C206.575 345.077 207.109 345.364 207.822 345.601C208.535 345.839 209.426 346.096 210.495 346.374C211.881 346.71 213.079 347.126 214.089 347.621C215.118 348.096 215.9 348.73 216.435 349.522C216.989 350.294 217.267 351.324 217.267 352.611C217.267 353.739 217.059 354.709 216.643 355.521C216.227 356.313 215.653 356.957 214.92 357.452C214.188 357.947 213.356 358.313 212.426 358.551C211.495 358.768 210.505 358.877 209.456 358.877C208.406 358.877 207.357 358.768 206.307 358.551C205.258 358.333 204.248 358.026 203.278 357.63C202.308 357.214 201.417 356.719 200.605 356.145L202.417 352.611C202.595 352.789 202.912 353.026 203.367 353.323C203.822 353.601 204.377 353.888 205.03 354.185C205.684 354.462 206.396 354.699 207.169 354.897C207.941 355.095 208.723 355.194 209.515 355.194C210.624 355.194 211.465 355.006 212.039 354.63C212.614 354.254 212.901 353.719 212.901 353.026C212.901 352.393 212.673 351.898 212.218 351.541C211.762 351.185 211.129 350.878 210.317 350.621C209.505 350.343 208.545 350.046 207.436 349.73C206.109 349.353 205.001 348.938 204.11 348.482C203.219 348.007 202.555 347.413 202.12 346.7C201.684 345.987 201.466 345.096 201.466 344.027C201.466 342.582 201.803 341.374 202.476 340.404C203.169 339.414 204.1 338.671 205.268 338.176C206.436 337.662 207.733 337.404 209.159 337.404C210.149 337.404 211.079 337.513 211.95 337.731C212.841 337.949 213.673 338.236 214.445 338.592C215.217 338.949 215.91 339.335 216.524 339.75L214.712 343.077ZM219.087 347.948C219.087 346.661 219.314 345.403 219.77 344.176C220.245 342.928 220.928 341.8 221.819 340.79C222.71 339.76 223.799 338.949 225.086 338.355C226.373 337.741 227.838 337.434 229.482 337.434C231.422 337.434 233.095 337.86 234.501 338.711C235.927 339.562 236.986 340.671 237.679 342.037L234.531 344.205C234.174 343.413 233.709 342.79 233.135 342.334C232.561 341.859 231.947 341.532 231.293 341.354C230.64 341.156 229.996 341.057 229.363 341.057C228.333 341.057 227.432 341.265 226.66 341.681C225.908 342.097 225.274 342.641 224.759 343.314C224.245 343.988 223.858 344.74 223.601 345.572C223.363 346.403 223.245 347.235 223.245 348.066C223.245 348.997 223.393 349.898 223.69 350.769C223.987 351.621 224.403 352.383 224.938 353.056C225.492 353.709 226.145 354.234 226.898 354.63C227.67 355.006 228.511 355.194 229.422 355.194C230.076 355.194 230.739 355.086 231.412 354.868C232.085 354.65 232.709 354.303 233.283 353.828C233.857 353.353 234.303 352.739 234.62 351.987L237.976 353.917C237.56 354.967 236.877 355.858 235.927 356.59C234.996 357.323 233.947 357.877 232.778 358.254C231.61 358.63 230.452 358.818 229.303 358.818C227.799 358.818 226.423 358.511 225.175 357.897C223.928 357.264 222.849 356.432 221.938 355.402C221.047 354.353 220.344 353.185 219.829 351.898C219.334 350.591 219.087 349.274 219.087 347.948ZM249.463 358.788C247.918 358.788 246.512 358.491 245.245 357.897C243.998 357.303 242.919 356.501 242.008 355.491C241.117 354.462 240.424 353.313 239.929 352.046C239.434 350.759 239.186 349.443 239.186 348.096C239.186 346.69 239.444 345.354 239.959 344.087C240.493 342.8 241.216 341.661 242.127 340.671C243.057 339.661 244.146 338.869 245.394 338.295C246.661 337.701 248.047 337.404 249.552 337.404C251.076 337.404 252.462 337.711 253.71 338.325C254.977 338.939 256.056 339.76 256.947 340.79C257.838 341.82 258.531 342.968 259.026 344.235C259.521 345.502 259.768 346.809 259.768 348.156C259.768 349.542 259.511 350.878 258.996 352.165C258.481 353.432 257.759 354.571 256.828 355.581C255.917 356.571 254.828 357.353 253.561 357.927C252.314 358.501 250.948 358.788 249.463 358.788ZM243.344 348.096C243.344 349.007 243.483 349.888 243.76 350.739C244.037 351.591 244.433 352.353 244.948 353.026C245.483 353.68 246.126 354.204 246.879 354.6C247.651 354.977 248.522 355.165 249.492 355.165C250.482 355.165 251.363 354.967 252.136 354.571C252.908 354.155 253.551 353.61 254.066 352.937C254.581 352.244 254.967 351.482 255.224 350.65C255.502 349.799 255.64 348.948 255.64 348.096C255.64 347.185 255.492 346.314 255.195 345.483C254.917 344.631 254.512 343.879 253.977 343.225C253.462 342.552 252.819 342.027 252.046 341.651C251.294 341.255 250.443 341.057 249.492 341.057C248.482 341.057 247.591 341.265 246.819 341.681C246.067 342.077 245.433 342.612 244.918 343.285C244.404 343.958 244.008 344.71 243.73 345.542C243.473 346.374 243.344 347.225 243.344 348.096ZM262.913 358.64V337.553H272.238C273.209 337.553 274.1 337.751 274.911 338.147C275.743 338.543 276.456 339.077 277.05 339.75C277.664 340.424 278.129 341.176 278.446 342.008C278.782 342.839 278.951 343.691 278.951 344.562C278.951 345.453 278.792 346.314 278.475 347.146C278.178 347.958 277.743 348.67 277.169 349.284C276.594 349.898 275.921 350.373 275.149 350.71L279.96 358.64H275.446L271.11 351.571H267.011V358.64H262.913ZM267.011 347.977H272.149C272.664 347.977 273.119 347.829 273.515 347.532C273.911 347.215 274.228 346.799 274.466 346.284C274.703 345.77 274.822 345.195 274.822 344.562C274.822 343.889 274.684 343.305 274.406 342.81C274.129 342.295 273.773 341.889 273.337 341.592C272.921 341.295 272.466 341.146 271.971 341.146H267.011V347.977ZM297.306 355.046V358.64H282.664V337.553H297.039V341.146H286.763V346.225H295.643V349.551H286.763V355.046H297.306ZM298.847 347.948C298.847 346.661 299.075 345.403 299.531 344.176C300.006 342.928 300.689 341.8 301.58 340.79C302.471 339.76 303.56 338.949 304.847 338.355C306.134 337.741 307.599 337.434 309.242 337.434C311.183 337.434 312.856 337.86 314.262 338.711C315.687 339.562 316.747 340.671 317.44 342.037L314.291 344.205C313.935 343.413 313.47 342.79 312.896 342.334C312.321 341.859 311.708 341.532 311.054 341.354C310.401 341.156 309.757 341.057 309.124 341.057C308.094 341.057 307.193 341.265 306.421 341.681C305.669 342.097 305.035 342.641 304.52 343.314C304.005 343.988 303.619 344.74 303.362 345.572C303.124 346.403 303.005 347.235 303.005 348.066C303.005 348.997 303.154 349.898 303.451 350.769C303.748 351.621 304.164 352.383 304.698 353.056C305.253 353.709 305.906 354.234 306.659 354.63C307.431 355.006 308.272 355.194 309.183 355.194C309.836 355.194 310.5 355.086 311.173 354.868C311.846 354.65 312.47 354.303 313.044 353.828C313.618 353.353 314.064 352.739 314.381 351.987L317.737 353.917C317.321 354.967 316.638 355.858 315.687 356.59C314.757 357.323 313.707 357.877 312.539 358.254C311.371 358.63 310.213 358.818 309.064 358.818C307.559 358.818 306.183 358.511 304.936 357.897C303.689 357.264 302.609 356.432 301.699 355.402C300.808 354.353 300.105 353.185 299.59 351.898C299.095 350.591 298.847 349.274 298.847 347.948ZM325.927 337.553H330.085L337.837 358.64H333.62L331.659 353.383H324.294L322.363 358.64H318.146L325.927 337.553ZM330.917 350.502L328.006 341.8L324.977 350.502H330.917ZM340.15 358.64V337.553H349.476C350.446 337.553 351.337 337.751 352.149 338.147C352.98 338.543 353.693 339.077 354.287 339.75C354.901 340.424 355.366 341.176 355.683 342.008C356.02 342.839 356.188 343.691 356.188 344.562C356.188 345.453 356.03 346.314 355.713 347.146C355.416 347.958 354.98 348.67 354.406 349.284C353.832 349.898 353.159 350.373 352.386 350.71L357.198 358.64H352.683L348.347 351.571H344.249V358.64H340.15ZM344.249 347.977H349.387C349.901 347.977 350.357 347.829 350.753 347.532C351.149 347.215 351.466 346.799 351.703 346.284C351.941 345.77 352.06 345.195 352.06 344.562C352.06 343.889 351.921 343.305 351.644 342.81C351.367 342.295 351.01 341.889 350.575 341.592C350.159 341.295 349.703 341.146 349.208 341.146H344.249V347.977ZM359.902 358.64V337.553H367.564C369.861 337.553 371.782 338.028 373.326 338.978C374.87 339.909 376.029 341.176 376.801 342.78C377.573 344.364 377.959 346.126 377.959 348.066C377.959 350.205 377.533 352.066 376.682 353.65C375.831 355.234 374.623 356.462 373.059 357.333C371.514 358.204 369.683 358.64 367.564 358.64H359.902ZM373.831 348.066C373.831 346.7 373.583 345.502 373.088 344.473C372.593 343.423 371.881 342.612 370.95 342.037C370.019 341.443 368.891 341.146 367.564 341.146H364V355.046H367.564C368.911 355.046 370.049 354.749 370.98 354.155C371.91 353.541 372.613 352.71 373.088 351.66C373.583 350.591 373.831 349.393 373.831 348.066Z" fill="#1C243C"/>
<path d="M136.445 134.26C136.185 134.26 135.944 133.963 135.721 133.369C135.536 132.775 135.387 132.088 135.276 131.309C135.165 130.529 135.109 129.88 135.109 129.36C135.109 129.174 135.127 129.007 135.165 128.859C135.202 128.71 135.239 128.599 135.276 128.525L149.363 111.264C149.771 110.744 150.124 110.206 150.421 109.649C150.755 109.092 151.015 108.498 151.2 107.867C151.386 107.236 151.479 106.587 151.479 105.919C151.479 104.397 151.033 103.265 150.142 102.522C149.252 101.78 148.157 101.409 146.857 101.409C145.595 101.409 144.5 101.613 143.572 102.021C142.644 102.392 141.865 102.782 141.234 103.19C140.64 103.599 140.157 103.803 139.786 103.803C139.229 103.803 138.709 103.562 138.227 103.079C137.744 102.559 137.355 101.965 137.058 101.297C136.761 100.592 136.612 99.9609 136.612 99.4041C136.612 98.9215 136.928 98.4204 137.559 97.9007C138.227 97.3439 139.099 96.8428 140.176 96.3974C141.252 95.9148 142.44 95.5436 143.739 95.2838C145.076 94.9868 146.393 94.8383 147.693 94.8383C151.627 94.8383 154.634 95.8591 156.713 97.9007C158.791 99.9423 159.831 102.559 159.831 105.752C159.831 106.939 159.682 108.072 159.385 109.148C159.125 110.225 158.736 111.245 158.216 112.21C157.696 113.138 157.102 114.011 156.434 114.827L145.911 127.745H158.829C159.942 127.745 160.499 128.673 160.499 130.529V131.476C160.499 133.332 159.942 134.26 158.829 134.26H136.445ZM177.88 134.705C175.133 134.705 172.776 133.926 170.808 132.367C168.841 130.77 167.319 128.488 166.243 125.518C165.203 122.511 164.684 118.929 164.684 114.772C164.684 110.577 165.203 106.995 166.243 104.026C167.319 101.056 168.841 98.7916 170.808 97.2326C172.776 95.6364 175.133 94.8383 177.88 94.8383C180.627 94.8383 182.984 95.6364 184.951 97.2326C186.918 98.7916 188.422 101.056 189.461 104.026C190.538 106.995 191.076 110.577 191.076 114.772C191.076 118.929 190.538 122.511 189.461 125.518C188.422 128.488 186.918 130.77 184.951 132.367C182.984 133.926 180.627 134.705 177.88 134.705ZM177.88 128.191C178.919 128.191 179.791 127.69 180.497 126.687C181.239 125.685 181.796 124.182 182.167 122.177C182.538 120.173 182.724 117.704 182.724 114.772C182.724 111.802 182.538 109.334 182.167 107.366C181.796 105.362 181.239 103.858 180.497 102.856C179.791 101.854 178.919 101.353 177.88 101.353C176.84 101.353 175.95 101.854 175.207 102.856C174.502 103.858 173.964 105.362 173.592 107.366C173.221 109.334 173.036 111.802 173.036 114.772C173.036 117.704 173.221 120.173 173.592 122.177C173.964 124.182 174.502 125.685 175.207 126.687C175.95 127.69 176.84 128.191 177.88 128.191ZM196.04 134.26C195.78 134.26 195.539 133.963 195.316 133.369C195.131 132.775 194.982 132.088 194.871 131.309C194.76 130.529 194.704 129.88 194.704 129.36C194.704 129.174 194.722 129.007 194.76 128.859C194.797 128.71 194.834 128.599 194.871 128.525L208.958 111.264C209.366 110.744 209.719 110.206 210.016 109.649C210.35 109.092 210.61 108.498 210.795 107.867C210.981 107.236 211.074 106.587 211.074 105.919C211.074 104.397 210.628 103.265 209.737 102.522C208.847 101.78 207.752 101.409 206.452 101.409C205.19 101.409 204.095 101.613 203.167 102.021C202.239 102.392 201.46 102.782 200.829 103.19C200.235 103.599 199.752 103.803 199.381 103.803C198.824 103.803 198.304 103.562 197.822 103.079C197.339 102.559 196.95 101.965 196.653 101.297C196.356 100.592 196.207 99.9609 196.207 99.4041C196.207 98.9215 196.523 98.4204 197.154 97.9007C197.822 97.3439 198.694 96.8428 199.771 96.3974C200.847 95.9148 202.035 95.5436 203.334 95.2838C204.671 94.9868 205.988 94.8383 207.288 94.8383C211.222 94.8383 214.229 95.8591 216.308 97.9007C218.386 99.9423 219.426 102.559 219.426 105.752C219.426 106.939 219.277 108.072 218.98 109.148C218.72 110.225 218.331 111.245 217.811 112.21C217.291 113.138 216.697 114.011 216.029 114.827L205.506 127.745H218.424C219.537 127.745 220.094 128.673 220.094 130.529V131.476C220.094 133.332 219.537 134.26 218.424 134.26H196.04ZM235.582 134.705C233.503 134.705 231.628 134.538 229.958 134.204C228.325 133.833 227.025 133.35 226.06 132.756C225.132 132.125 224.668 131.439 224.668 130.696C224.668 130.436 224.761 130.065 224.947 129.583C225.132 129.1 225.374 128.618 225.671 128.135C226.005 127.615 226.339 127.188 226.673 126.854C227.007 126.483 227.341 126.298 227.675 126.298C227.898 126.298 228.343 126.465 229.011 126.799C229.68 127.096 230.552 127.411 231.628 127.745C232.742 128.042 234.041 128.191 235.526 128.191C237.419 128.191 238.922 127.69 240.036 126.687C241.187 125.685 241.762 124.274 241.762 122.456C241.762 120.488 241.224 118.966 240.147 117.89C239.071 116.813 237.196 116.275 234.524 116.275H228.455C227.638 116.275 227.081 116.108 226.784 115.774C226.487 115.403 226.357 114.827 226.394 114.048L227.452 97.511C227.527 96.7314 227.731 96.1746 228.065 95.8406C228.399 95.4694 228.974 95.2838 229.791 95.2838H246.217C247.33 95.2838 247.887 96.2118 247.887 98.0678V99.5711C247.887 101.056 247.33 101.798 246.217 101.798H231.74L235.192 98.5689L234.19 112.99L231.183 109.761H235.86C237.976 109.761 239.888 109.965 241.595 110.373C243.303 110.781 244.769 111.468 245.994 112.433C247.219 113.361 248.165 114.623 248.833 116.219C249.502 117.816 249.836 119.82 249.836 122.233C249.836 124.571 249.409 126.557 248.555 128.191C247.738 129.787 246.625 131.067 245.214 132.033C243.841 132.961 242.3 133.647 240.593 134.093C238.922 134.501 237.252 134.705 235.582 134.705Z" fill="#2D5AA9"/>
<path d="M51.53 172.09H346.64" stroke="#1C243C" stroke-width="2" stroke-miterlimit="10"/>
<path d="M82.0622 77.3217L77.4129 82.204L90.081 94.2677L87.275 97.2143L74.6069 85.1506L69.9575 90.0329L67.3551 87.5546L79.4598 74.8434L82.0622 77.3217Z" fill="#1C243C"/>
<path d="M104.414 81.5722C103.205 82.5325 101.919 83.1741 100.557 83.4969C99.2109 83.8074 97.8672 83.8504 96.5259 83.6259C95.1879 83.3737 93.9311 82.9052 92.7554 82.2206C91.5675 81.5205 90.5549 80.6432 89.7176 79.5888C88.8435 78.4878 88.214 77.2811 87.8292 75.9686C87.4475 74.6282 87.3056 73.2872 87.4032 71.9455C87.5041 70.576 87.8645 69.2786 88.4843 68.0532C89.1074 66.8001 90.0081 65.7056 91.1866 64.7699C92.3806 63.8218 93.6569 63.2003 95.0155 62.9053C96.3896 62.5981 97.7456 62.5706 99.0837 62.8228C100.422 63.0751 101.679 63.5436 102.854 64.2282C104.03 64.9128 105.036 65.7823 105.873 66.8367C106.735 67.9222 107.365 69.1289 107.762 70.4569C108.147 71.7695 108.289 73.1105 108.188 74.48C108.09 75.8217 107.724 77.1113 107.088 78.349C106.468 79.5744 105.577 80.6488 104.414 81.5722ZM92.974 77.0032C93.5404 77.7165 94.1968 78.3204 94.9433 78.8148C95.6898 79.3092 96.474 79.6599 97.2958 79.867C98.1207 80.0463 98.951 80.0571 99.7865 79.8993C100.625 79.7138 101.424 79.3193 102.184 78.716C102.96 78.1004 103.526 77.3975 103.885 76.6072C104.231 75.8013 104.397 74.9748 104.381 74.1274C104.353 73.2646 104.182 72.4275 103.866 71.6162C103.554 70.777 103.133 70.0241 102.603 69.3573C102.037 68.644 101.379 68.0541 100.629 67.5875C99.8828 67.0931 99.0971 66.7562 98.2721 66.577C97.4503 66.3699 96.6201 66.3591 95.7814 66.5446C94.9459 66.7024 94.156 67.0767 93.4117 67.6677C92.6209 68.2957 92.0524 69.0125 91.7062 69.8183C91.3632 70.5963 91.1994 71.409 91.2149 72.2563C91.2303 73.1037 91.3881 73.9392 91.6881 74.7628C92.0036 75.5741 92.4323 76.3209 92.974 77.0032Z" fill="#1C243C"/>
<path d="M116.636 72.4261L106.042 54.1937L113.771 49.7023C114.61 49.2148 115.48 48.9384 116.381 48.8729C117.282 48.8075 118.158 48.9165 119.01 49.2002C119.879 49.4738 120.668 49.8856 121.376 50.4356C122.085 50.9855 122.659 51.637 123.096 52.3903C123.693 53.4175 124.02 54.5326 124.078 55.7356C124.136 56.9386 123.915 58.0748 123.414 59.1443C122.913 60.2138 122.09 61.0818 120.943 61.7484L116.629 64.2552L120.18 70.3669L116.636 72.4261ZM114.823 61.148L118.932 58.7605C119.36 58.5118 119.675 58.1682 119.878 57.7295C120.081 57.2909 120.156 56.7893 120.103 56.2249C120.04 55.6433 119.839 55.0614 119.501 54.4794C119.133 53.8459 118.7 53.3763 118.202 53.0705C117.72 52.7547 117.227 52.5949 116.721 52.5912C116.232 52.5776 115.774 52.6951 115.346 52.9438L111.391 55.2417L114.823 61.148Z" fill="#1C243C"/>
<path d="M142.092 59.219L135.119 39.3183L143.556 36.3622C144.471 36.0413 145.378 35.9336 146.275 36.0388C147.172 36.1441 148.012 36.4162 148.795 36.8551C149.597 37.2875 150.294 37.8404 150.887 38.5139C151.48 39.1874 151.92 39.9353 152.208 40.7575C152.601 41.8786 152.713 43.0354 152.543 44.2278C152.373 45.4202 151.942 46.4944 151.249 47.4506C150.556 48.4067 149.583 49.1041 148.331 49.5428L143.623 51.1928L145.96 57.8637L142.092 59.219ZM142.434 47.8012L146.919 46.2299C147.386 46.0662 147.761 45.7881 148.043 45.3955C148.325 45.0029 148.493 44.5245 148.547 43.9601C148.594 43.377 148.507 42.7677 148.284 42.1324C148.042 41.441 147.705 40.8983 147.273 40.5041C146.86 40.1034 146.405 39.8536 145.909 39.7547C145.431 39.6493 144.959 39.6784 144.492 39.8421L140.175 41.3545L142.434 47.8012Z" fill="#1C243C"/>
<path d="M175.042 46.4135L175.773 49.9321L161.436 52.9089L157.149 32.2622L171.224 29.3399L171.955 32.8585L161.893 34.9477L162.925 39.9203L171.62 38.1149L172.297 41.3719L163.602 43.1772L164.719 48.557L175.042 46.4135Z" fill="#1C243C"/>
<path d="M180.745 49.2621L179.285 28.2257L188.588 27.58C189.556 27.5129 190.459 27.6487 191.296 27.9875C192.153 28.325 192.901 28.809 193.54 29.4394C194.199 30.0685 194.716 30.7869 195.089 31.5946C195.483 32.4009 195.709 33.2386 195.77 34.1077C195.831 34.9966 195.733 35.8668 195.475 36.7183C195.234 37.5487 194.849 38.29 194.319 38.942C193.789 39.5941 193.15 40.1148 192.403 40.504L197.752 48.0818L193.248 48.3944L188.433 41.6429L184.344 41.9267L184.834 48.9783L180.745 49.2621ZM184.095 38.3416L189.221 37.9859C189.735 37.9502 190.179 37.7706 190.553 37.4469C190.926 37.1034 191.214 36.6667 191.415 36.1367C191.616 35.6066 191.695 35.0256 191.651 34.3935C191.605 33.7219 191.426 33.1488 191.115 32.6742C190.803 32.1798 190.419 31.7996 189.964 31.5335C189.529 31.266 189.064 31.1493 188.57 31.1836L183.622 31.527L184.095 38.3416Z" fill="#1C243C"/>
<path d="M202.301 48.2718L203.628 27.2266L217.767 28.1186L217.541 31.7052L207.492 31.0713L207.15 36.4956L215.509 37.0229L215.3 40.3427L206.941 39.8154L206.391 48.5299L202.301 48.2718Z" fill="#1C243C"/>
<path d="M229.422 51.5701C227.908 51.2625 226.59 50.6914 225.466 49.8569C224.362 49.0263 223.464 48.0256 222.773 46.8546C222.105 45.6681 221.655 44.4047 221.422 43.0643C221.193 41.7045 221.213 40.3649 221.481 39.0454C221.761 37.6678 222.28 36.4094 223.037 35.2701C223.817 34.1154 224.752 33.1437 225.842 32.3549C226.955 31.5507 228.18 30.9915 229.516 30.6773C230.876 30.3477 232.294 30.3327 233.769 30.6324C235.263 30.9361 236.56 31.513 237.66 32.363C238.779 33.2169 239.673 34.2371 240.341 35.4235C241.009 36.61 241.46 37.8734 241.692 39.2138C241.925 40.5542 241.907 41.8841 241.639 43.2035C241.363 44.5618 240.844 45.8202 240.084 46.9789C239.327 48.1181 238.392 49.0898 237.279 49.894C236.189 50.6828 234.966 51.2323 233.61 51.5425C232.273 51.8568 230.877 51.866 229.422 51.5701ZM225.556 39.8737C225.374 40.7662 225.335 41.6573 225.437 42.5468C225.539 43.4364 225.775 44.2623 226.145 45.0246C226.539 45.7714 227.065 46.4137 227.724 46.9517C228.405 47.4741 229.222 47.832 230.172 48.0253C231.143 48.2225 232.045 48.204 232.881 47.9697C233.721 47.7161 234.46 47.3107 235.098 46.7535C235.741 46.1769 236.271 45.5068 236.689 44.7432C237.13 43.964 237.436 43.1573 237.605 42.323C237.787 41.4304 237.815 40.5471 237.689 39.673C237.587 38.7835 237.339 37.9653 236.946 37.2185C236.575 36.4562 236.049 35.8139 235.367 35.2914C234.709 34.7534 233.914 34.3898 232.983 34.2005C231.993 33.9994 231.078 34.0256 230.239 34.2792C229.423 34.5174 228.695 34.9151 228.057 35.4723C227.418 36.0294 226.88 36.6879 226.443 37.4476C226.025 38.2113 225.729 39.02 225.556 39.8737Z" fill="#1C243C"/>
<path d="M244.258 55.0173L251.494 35.2108L260.254 38.4111C261.165 38.7441 261.934 39.2358 262.56 39.8863C263.206 40.5437 263.692 41.2904 264.019 42.1266C264.364 42.9695 264.543 43.8359 264.555 44.7257C264.586 45.6223 264.452 46.4798 264.153 47.2981C263.847 48.135 263.403 48.8896 262.82 49.562C262.262 50.2226 261.609 50.7426 260.859 51.1221C260.109 51.5016 259.313 51.7169 258.472 51.7681L260.27 60.8675L256.03 59.3183L254.383 51.1909L250.533 49.7844L248.107 56.4238L244.258 55.0173ZM251.766 46.409L256.593 48.1722C257.076 48.3488 257.555 48.3656 258.029 48.2226C258.509 48.0609 258.95 47.7791 259.349 47.3771C259.749 46.9751 260.058 46.4765 260.275 45.8814C260.506 45.2491 260.577 44.6529 260.486 44.0928C260.402 43.5141 260.207 43.0106 259.9 42.5821C259.611 42.1605 259.234 41.8647 258.769 41.6948L254.111 39.9928L251.766 46.409Z" fill="#1C243C"/>
<path d="M279.366 71.0457L286.137 58.9749L276.381 65.3188L274.387 64.2L274.714 52.5671L267.943 64.6379L264.369 62.6328L274.685 44.2416L278.519 46.3921L278.088 59.9082L289.45 52.5238L293.257 54.6598L282.941 73.0509L279.366 71.0457Z" fill="#1C243C"/>
<path d="M301.619 82.9511L299.397 85.7756L287.888 76.7228L300.926 60.1491L312.224 69.0367L310.002 71.8612L301.925 65.5077L298.785 69.4994L305.765 74.9898L303.708 77.6043L296.729 72.1138L293.332 76.4323L301.619 82.9511Z" fill="#1C243C"/>
<path d="M303.13 89.1692L318.293 74.5157L324.774 81.2218C325.448 81.9195 325.925 82.6978 326.204 83.5568C326.498 84.43 326.608 85.314 326.537 86.209C326.48 87.1182 326.262 87.9756 325.884 88.7813C325.52 89.6013 325.025 90.3139 324.398 90.9193C323.757 91.5385 323.028 92.0231 322.21 92.3732C321.42 92.7237 320.604 92.9058 319.764 92.9195C318.924 92.9331 318.114 92.7792 317.335 92.4578L314.977 101.428L311.839 98.182L313.909 90.1518L311.061 87.2045L305.978 92.1165L303.13 89.1692ZM313.645 84.7072L317.216 88.402C317.573 88.7722 317.997 88.9965 318.485 89.0748C318.988 89.1395 319.508 89.0783 320.043 88.8914C320.578 88.7046 321.074 88.391 321.529 87.9507C322.013 87.4829 322.337 86.9773 322.5 86.434C322.678 85.8769 322.722 85.3386 322.633 84.8189C322.558 84.3136 322.348 83.8829 322.004 83.5269L318.557 79.9603L313.645 84.7072Z" fill="#1C243C"/>
<path d="M301.39 311.37C331.32 283.78 350.09 244.25 350.09 200.33C350.09 169.39 340.77 140.64 324.81 116.69" stroke="#1C243C" stroke-width="2" stroke-miterlimit="10"/>
<path d="M73.9299 115.81C57.6099 139.93 48.0699 169.02 48.0699 200.34C48.0699 244.17 66.7599 283.61 96.5799 311.2" stroke="#1C243C" stroke-width="2" stroke-miterlimit="10"/>
<path d="M63.51 268.13H334.65" stroke="#1C243C" stroke-width="2" stroke-miterlimit="10"/>
<mask id="mask0_20_38" style="mask-type:luminance" maskUnits="userSpaceOnUse" x="90" y="161" width="221" height="111">
<path d="M310.94 161.82H90.9399V271.56H310.94V161.82Z" fill="white"/>
</mask>
<g mask="url(#mask0_20_38)">
<mask id="mask1_20_38" style="mask-type:luminance" maskUnits="userSpaceOnUse" x="90" y="161" width="221" height="111">
<path d="M310.94 161.82H90.9399V271.56H310.94V161.82Z" fill="white"/>
</mask>
<g mask="url(#mask1_20_38)">
<path d="M159.24 205.14H141.57L132.26 218.47L132.58 210.76V189.57H117.16V245.44H132.74C132.74 245.44 132.58 239.82 132.58 237.09C132.58 235.01 135.63 231.79 135.63 231.79L143.18 245.44H160.21L145.44 221.68L159.25 205.14H159.24Z" fill="#004F9F"/>
<path d="M235.02 205.14L230.85 221.36L229.57 227.47L228.12 221.2L223.15 205.14H209.65L204.52 221.36L203.07 227.63L201.62 221.36L197.13 205.14H196.48H185.89H182.02L186.34 217.89L195.52 245.44H209.17L215.11 226.17L215.75 223.13L216.56 226.17L222.66 245.44H235.82L249.48 205.14H235.02Z" fill="#004F9F"/>
<path d="M284.72 242.24V220.4C284.72 215.1 283.12 210.12 280.22 207.71C278.62 206.59 276.53 205.62 274.12 205.13C271.87 204.65 269.31 204.33 266.73 204.33C261.27 204.33 256.78 204.97 255.34 205.29L252.28 214.29C253.56 214.29 258.06 213.65 261.6 213.65C264.65 213.65 266.41 213.97 268.02 215.25C269.62 216.37 269.3 220.07 269.3 220.07C266.4 220.07 263.84 220.23 261.59 220.39C260.14 220.55 258.53 220.87 257.09 221.19C255.65 221.51 253.87 221.99 252.11 222.63C250.19 223.43 248.58 224.71 247.13 226.48C245.69 228.25 244.89 230.34 244.89 232.74C244.89 236.6 246.17 239.8 248.91 242.22C251.48 244.62 255.01 245.75 259.34 245.75C263.67 245.75 267.05 244.79 270.1 242.86C270.26 243.98 270.74 244.62 271.54 245.11C272.18 245.43 273.3 245.43 275.08 245.43H284.71V242.22L284.72 242.24ZM269.14 235.33C269.14 235.49 268.98 235.49 268.82 235.65C267.37 235.97 265.6 235.97 264.96 235.97C264.32 235.97 262.88 235.81 261.91 235.33C261.43 235.01 261.26 234.53 260.94 234.05C260.78 233.57 260.62 232.92 260.62 232.28C260.62 230.52 261.43 229.23 263.2 228.59C264.8 227.95 266.57 227.79 269.14 227.63V235.34V235.33Z" fill="#004F9F"/>
<path d="M163.96 205.14V236.45V245.44H170.22H179.39V205.14H163.96Z" fill="#004F9F"/>
<path d="M171.61 187.63C167.72 187.63 164.56 190.81 164.56 194.67C164.56 198.53 167.72 201.88 171.61 201.88C175.5 201.88 178.81 198.7 178.81 194.67C178.81 190.64 175.64 187.63 171.61 187.63Z" fill="#004F9F"/>
</g>
</g>
</g>
<defs>
<clipPath id="clip0_20_38">
<rect width="396" height="384" fill="white"/>
</clipPath>
</defs>
</svg>
