<svg width="18" height="18" viewBox="0 0 18 18" fill="none" xmlns="http://www.w3.org/2000/svg">
<g clip-path="url(#clip0_9_188)">
<path d="M4.92383 9.07129H6.04883V8.46754C6.04883 6.78379 7.37258 5.41504 9.00383 5.41504C10.6351 5.41504 11.9588 6.78379 11.9588 8.46754V9.07129H13.0838V8.46754C13.0838 6.16504 11.2538 4.29004 9.00383 4.29004C6.75383 4.29004 4.92383 6.16504 4.92383 8.46754V9.07129Z" fill="#0054C5"/>
<path d="M3.37508 7.80383H1.26758V8.92883H3.37508V7.80383Z" fill="#0054C5"/>
<path d="M14.2914 10.6163H3.71262L0.776367 17.3663H17.2239L14.2876 10.6163H14.2914ZM15.5101 16.2413H9.56637V14.5538H14.7789L15.5139 16.2413H15.5101ZM14.2876 13.4288H9.56637V11.7413H13.5564L14.2914 13.4288H14.2876ZM8.43761 11.7413V13.4288H3.71638L4.45136 11.7413H8.44137H8.43761ZM3.22513 14.5538H8.43761V16.2413H2.49012L3.22513 14.5538Z" fill="#0054C5"/>
<path d="M16.7325 7.80383H14.625V8.92883H16.7325V7.80383Z" fill="#0054C5"/>
<path d="M14.0713 2.50465L12.5811 3.99487L13.3765 4.79037L14.8668 3.30014L14.0713 2.50465Z" fill="#0054C5"/>
<path d="M3.92928 2.49625L3.13379 3.29175L4.62402 4.78197L5.41951 3.98648L3.92928 2.49625Z" fill="#0054C5"/>
<path d="M9.5625 0.633789H8.4375V2.74129H9.5625V0.633789Z" fill="#0054C5"/>
</g>
<defs>
<clipPath id="clip0_9_188">
<rect width="18" height="17" fill="white" transform="translate(0 0.5)"/>
</clipPath>
</defs>
</svg>
