<svg width="18" height="18" viewBox="0 0 18 18" fill="none" xmlns="http://www.w3.org/2000/svg">
<g clip-path="url(#clip0_9_159)">
<path d="M11.0635 11.8238L10.2685 11.0251L9.56348 11.7301V0.975098H8.43848V11.7301L7.73348 11.0251L6.93848 11.8238L9.00098 13.8863L11.0635 11.8238Z" fill="#0054C5"/>
<path d="M15.835 11.8238L15.04 11.0251L14.335 11.7301V0.975098H13.21V11.7301L12.505 11.0251L11.71 11.8238L13.7725 13.8863L15.835 11.8238Z" fill="#0054C5"/>
<path d="M6.29101 11.8238L5.49602 11.0251L4.78727 11.7338V0.975098H3.66227V11.7263L2.96102 11.0251L2.16602 11.8238L4.22852 13.8863L6.29101 11.8238Z" fill="#0054C5"/>
<path d="M16.8808 13.5188C16.1683 14.2238 15.0658 14.8201 13.6933 15.2363C12.2908 15.6676 10.6708 15.8963 9.00203 15.8963C7.33328 15.8963 5.71328 15.6676 4.31078 15.2363C2.93453 14.8126 1.83203 14.22 1.12328 13.5188L0.332031 14.3176C1.16828 15.1463 2.42828 15.8363 3.97703 16.3126C5.48453 16.7776 7.22078 17.0251 8.99828 17.0251C10.7758 17.0251 12.512 16.7776 14.0195 16.3126C15.5645 15.8401 16.8245 15.1501 17.6683 14.3176L16.877 13.5188H16.8808Z" fill="#0054C5"/>
</g>
<defs>
<clipPath id="clip0_9_159">
<rect width="18" height="17" fill="white" transform="translate(0 0.5)"/>
</clipPath>
</defs>
</svg>
