<svg width="18" height="16" viewBox="0 0 18 16" fill="none" xmlns="http://www.w3.org/2000/svg">
<path d="M17.0787 12.0659V1.10352H0.919922V12.0659H8.43491V13.8376H5.23993V14.8965H12.7587V13.8376H9.56367V12.0659H17.0787ZM2.04492 2.15881H15.9537V11.0035H2.04492V2.15881Z" fill="#0054C5"/>
<path d="M13.2613 8.77994C12.5413 8.55053 12.4326 7.57288 12.3613 6.22112C12.2901 4.90818 12.2001 3.27053 10.6101 3.19641C10.1526 3.1717 9.81883 3.30229 9.54883 3.40464C9.34633 3.48229 9.18508 3.54229 8.98633 3.54582C8.76133 3.55287 8.58508 3.48229 8.35633 3.39759C8.05258 3.28465 7.67382 3.14347 7.17132 3.19641C5.61882 3.35523 5.57758 4.96817 5.54758 6.26347C5.51383 7.59053 5.43507 8.55053 4.73382 8.77994C4.29507 8.92465 3.49258 8.92817 3.22258 8.91758L3.17383 9.9764C3.20758 9.9764 3.30507 9.97994 3.45132 9.97994C3.84882 9.97994 4.57256 9.9517 5.10506 9.77876C6.59756 9.28817 6.63883 7.62582 6.67258 6.28818C6.70633 4.89053 6.80007 4.29759 7.29507 4.24818C7.52382 4.22347 7.70007 4.29053 7.94757 4.3823C8.22507 4.48465 8.57383 4.61524 9.01634 4.60112C9.42134 4.59053 9.72883 4.47759 9.97258 4.3823C10.1901 4.29759 10.3513 4.23759 10.5576 4.24818C11.0526 4.27288 11.1651 4.86229 11.2401 6.27052C11.3113 7.61876 11.4051 9.29876 12.9051 9.77876C13.6251 10.0082 14.7088 9.97641 14.8288 9.97288L14.7876 8.91406C14.5176 8.92465 13.7151 8.91405 13.2688 8.77641L13.2613 8.77994Z" fill="#0054C5"/>
</svg>
