<svg width="18" height="20" viewBox="0 0 18 20" fill="none" xmlns="http://www.w3.org/2000/svg">
<g clip-path="url(#clip0_9_196)">
<path d="M11.5003 12.1902L14.5378 17.7515H1.89652L8.71029 5.26021L7.72404 4.72021L-0.000976562 18.8765H16.4315L12.4903 11.6502L11.5003 12.1902Z" fill="#0054C5"/>
<path d="M7.88139 9.62134L6.2464 12.8876H8.3989L7.44265 14.9951L6.93639 14.1513L5.97266 14.7288L7.22514 16.8213L9.7189 16.4051L9.53516 15.2951L8.45889 15.4751L10.1464 11.7626H8.06889L8.88639 10.1238L7.88139 9.62134Z" fill="#0054C5"/>
<path d="M12.0367 10.6789C13.6079 10.6789 14.8829 9.40387 14.8829 7.83262C14.8829 6.93262 14.4517 6.08887 13.7429 5.55637V2.89012C13.7429 1.95262 12.9779 1.18762 12.0404 1.18762H12.0329C11.0954 1.18762 10.3304 1.95262 10.3304 2.89012V5.55637C9.62169 6.08887 9.19043 6.93262 9.19043 7.83262C9.19043 9.40387 10.4654 10.6789 12.0367 10.6789ZM11.1742 6.34387L11.4554 6.18262V2.89012C11.4554 2.57137 11.7142 2.31262 12.0329 2.31262H12.0404C12.3592 2.31262 12.6179 2.57137 12.6179 2.89012V6.18262L12.8992 6.34387C13.4279 6.64762 13.7579 7.22137 13.7579 7.83262C13.7579 8.78137 12.9854 9.55387 12.0367 9.55387C11.0879 9.55387 10.3154 8.78137 10.3154 7.83262C10.3154 7.22137 10.6454 6.64762 11.1742 6.34387Z" fill="#0054C5"/>
<path d="M12.6258 7.17627H11.3096V8.49252H12.6258V7.17627Z" fill="#0054C5"/>
<path d="M17.9992 3.0439L16.0792 1.1239L14.1592 3.0439L14.9542 3.8389L15.5167 3.2764V5.7214H16.6417V3.2764L17.2042 3.8389L17.9992 3.0439Z" fill="#0054C5"/>
</g>
<defs>
<clipPath id="clip0_9_196">
<rect width="18" height="19" fill="white" transform="translate(0 0.5)"/>
</clipPath>
</defs>
</svg>
