<svg width="18" height="18" viewBox="0 0 18 18" fill="none" xmlns="http://www.w3.org/2000/svg">
<g clip-path="url(#clip0_9_164)">
<path d="M3.51683 7.8193C3.99996 8.08367 4.53178 8.2141 5.06735 8.2141C5.60292 8.2141 6.12725 8.08367 6.61413 7.8193C7.56916 7.30114 8.16091 6.33531 8.16091 5.29899C8.16091 4.26266 7.58414 3.30741 6.61788 2.7822C5.65161 2.25698 4.49433 2.25346 3.52432 2.7822C2.56928 3.30036 1.97754 4.26619 1.97754 5.30251C1.97754 6.33884 2.5543 7.29409 3.52057 7.8193H3.51683ZM4.08236 3.69867C4.38947 3.533 4.72654 3.44841 5.06361 3.44841C5.40068 3.44841 5.74149 3.533 6.0486 3.7022C6.66282 4.03707 7.02985 4.6363 7.02985 5.30251C7.02985 5.96872 6.65158 6.57501 6.04486 6.90635C5.42689 7.24122 4.69283 7.24122 4.07487 6.90635C3.46065 6.57148 3.09362 5.97225 3.09362 5.30604C3.09362 4.63983 3.47188 4.03354 4.07861 3.7022L4.08236 3.69867Z" fill="#0054C5"/>
<path d="M5.62552 0.543823H4.50195V1.73525H5.62552V0.543823Z" fill="#0054C5"/>
<path d="M5.62552 8.87329H4.50195V10.0647H5.62552V8.87329Z" fill="#0054C5"/>
<path d="M8.24375 1.56061L7.34863 2.40308L8.14312 3.15082L9.03823 2.30836L8.24375 1.56061Z" fill="#0054C5"/>
<path d="M1.98496 7.45112L1.08984 8.29358L1.88433 9.04133L2.77944 8.19886L1.98496 7.45112Z" fill="#0054C5"/>
<path d="M10.1194 4.77368H8.85352V5.83116H10.1194V4.77368Z" fill="#0054C5"/>
<path d="M1.2737 4.77368H0.0078125V5.83116H1.2737V4.77368Z" fill="#0054C5"/>
<path d="M8.14409 7.44927L7.34961 8.19702L8.24473 9.03948L9.03921 8.29174L8.14409 7.44927Z" fill="#0054C5"/>
<path d="M1.88628 1.55901L1.0918 2.30676L1.98691 3.14923L2.7814 2.40148L1.88628 1.55901Z" fill="#0054C5"/>
<path d="M17.0706 11.1643L15.9995 12.1724H14.3965L14.3403 12.1195L15.2242 11.2876H16.2279V10.2302H15.5538V9.59569H14.4302V10.5404L13.5464 11.3722L13.4902 11.3194V9.81071L14.5613 8.80258L13.7673 8.0553L12.9284 8.84488L12.0895 8.0553L11.2955 8.80258L12.3666 9.81071V11.3194L12.3104 11.3722L11.4266 10.5404V9.59569H10.303V10.2302H9.62885V11.2876H10.6326L11.5164 12.1195L11.4603 12.1724H9.85731L8.78618 11.1643L7.99219 11.9116L8.83112 12.7011L7.99219 13.4907L8.78618 14.238L9.85731 13.2299H11.4603L11.5164 13.2828L10.6326 14.1146H9.62885V15.1721H10.303V15.8066H11.4266V14.8619L12.3104 14.03L12.3666 14.0829V15.5916L11.2955 16.5997L12.0895 17.347L12.9284 16.5574L13.7673 17.347L14.5613 16.5997L13.4902 15.5916V14.0829L13.5464 14.03L14.4302 14.8619V15.8066H15.5538V15.1721H16.2279V14.1146H15.2242L14.3403 13.2828L14.3965 13.2299H15.9995L17.0706 14.238L17.8646 13.4907L17.0257 12.7011L17.8646 11.9116L17.0706 11.1643ZM12.9284 13.2334L12.3666 12.7047L12.9284 12.1759L13.4902 12.7047L12.9284 13.2334Z" fill="#0054C5"/>
<path d="M13.8727 2.26741C15.1498 3.10634 15.4157 4.16734 15.4531 5.20014L14.5505 4.60443L13.9064 5.47156L16.3146 7.05778L17.9999 4.79125L17.0786 4.18497L16.5617 4.87938C16.4718 3.71615 16.0749 2.42603 14.5168 1.40028C13.442 0.691771 12.1386 0.420352 10.8428 0.631848L11.0338 1.67522C12.0338 1.51308 13.0412 1.72105 13.8689 2.26741H13.8727Z" fill="#0054C5"/>
<path d="M4.52423 16.0639C3.11228 15.4435 2.65911 14.4424 2.42691 13.4308L3.42688 13.8714L3.90253 12.9126L1.23967 11.7458L0 14.2521L1.0187 14.6997L1.39697 13.9313C1.70033 15.0628 2.32953 16.2683 4.04859 17.0227C4.7115 17.3117 5.4156 17.4562 6.12345 17.4562C6.68898 17.4562 7.25825 17.3646 7.80505 17.1778L7.42304 16.1837C6.47175 16.508 5.44181 16.4657 4.52049 16.0639H4.52423Z" fill="#0054C5"/>
</g>
<defs>
<clipPath id="clip0_9_164">
<rect width="18" height="17" fill="white" transform="translate(0 0.5)"/>
</clipPath>
</defs>
</svg>
